<svg width="108" height="27" viewBox="0 0 108 27" fill="none" xmlns="http://www.w3.org/2000/svg">
<path id="logo" fill-rule="evenodd" clip-rule="evenodd" d="M107.097 21.8792V26.2264H98.6971C97.7905 26.2264 97.0505 25.9607 96.4771 25.4294C95.9038 24.8981 95.6171 24.2219 95.6171 23.4007V12.6053H89.7371V8.25811H95.6171V0.86792H100.657V8.25811H107.817V12.6053H100.657V20.7924C100.657 21.517 101.017 21.8792 101.737 21.8792H107.097ZM9.12 26.7337C11.7333 26.7337 13.76 26.2024 15.2 25.1398C16.64 24.0771 17.36 22.6522 17.36 20.8651V20.6477C17.36 19.0296 16.72 17.7677 15.44 16.862C14.16 15.9564 12.5067 15.407 10.48 15.2137C8.72 15.0447 7.50667 14.8334 6.84 14.5798C6.17333 14.3262 5.84 13.9096 5.84 13.33C5.84 12.9194 6.05333 12.5753 6.48 12.2975C6.90667 12.0198 7.54667 11.8809 8.4 11.8809C9.33333 11.8809 10.0933 12.0681 10.68 12.4424C11.2667 12.8168 11.68 13.33 11.92 13.982L16.48 12.3156C16.2667 11.8085 15.96 11.2832 15.56 10.7398C15.16 10.1964 14.64 9.70129 14 9.2545C13.36 8.80771 12.58 8.44544 11.66 8.16771C10.74 7.88997 9.65333 7.7511 8.4 7.7511C7.44 7.7511 6.50667 7.87186 5.6 8.11337C4.69333 8.35488 3.89333 8.7111 3.2 9.18205C2.50667 9.65299 1.94667 10.2266 1.52 10.9028C1.09333 11.579 0.88 12.3639 0.88 13.2575V13.4749C0.88 15.1896 1.54 16.4877 2.86 17.3692C4.18 18.2507 5.96 18.776 8.2 18.9451C9.02667 19.0175 9.71333 19.1141 10.26 19.2349C10.8067 19.3556 11.24 19.5066 11.56 19.6877C11.88 19.8688 12.1 20.062 12.22 20.2673C12.34 20.4726 12.4 20.696 12.4 20.9375C12.4 21.3481 12.1667 21.7285 11.7 22.0786C11.2333 22.4288 10.3733 22.6039 9.12 22.6039C7.70667 22.6039 6.66 22.3141 5.98 21.7345C5.3 21.1549 4.85333 20.4787 4.64 19.7058L0 21.0824C0.133333 21.7103 0.393333 22.3564 0.78 23.0205C1.16667 23.6847 1.72 24.2885 2.44 24.8319C3.16 25.3753 4.06667 25.8281 5.16 26.1903C6.25333 26.5526 7.57333 26.7337 9.12 26.7337ZM31.5743 26.7337C34.401 26.7337 36.661 26.0817 38.3543 24.7775C40.0476 23.4734 41.121 21.7586 41.5743 19.6334L36.6143 18.5103C36.3743 19.6937 35.8476 20.6356 35.0343 21.336C34.221 22.0364 33.041 22.3866 31.4943 22.3866C30.7743 22.3866 30.0943 22.2839 29.4543 22.0786C28.8143 21.8734 28.2543 21.5654 27.7743 21.1549C27.2943 20.7443 26.9143 20.2311 26.6343 19.6153C26.3543 18.9994 26.2143 18.293 26.2143 17.496V17.2787C26.2143 16.4817 26.3543 15.7632 26.6343 15.1232C26.9143 14.4832 27.2943 13.9398 27.7743 13.493C28.2543 13.0462 28.8143 12.702 29.4543 12.4605C30.0943 12.219 30.7743 12.0983 31.4943 12.0983C33.041 12.0983 34.241 12.4847 35.0943 13.2575C35.9477 14.0303 36.4543 14.9481 36.6143 16.0107L41.5743 14.8515C41.121 12.7262 40.0343 11.0115 38.3143 9.70733C36.5943 8.40318 34.3476 7.7511 31.5743 7.7511C30.1343 7.7511 28.781 7.96846 27.5143 8.40318C26.2477 8.8379 25.141 9.46582 24.1943 10.287C23.2477 11.1081 22.5077 12.0983 21.9743 13.2575C21.441 14.4168 21.1743 15.7209 21.1743 17.17V17.6047C21.1743 19.0537 21.441 20.3458 21.9743 21.4809C22.5077 22.616 23.241 23.57 24.1743 24.3428C25.1076 25.1156 26.2076 25.7073 27.4743 26.1179C28.741 26.5285 30.1076 26.7337 31.5743 26.7337ZM57.9286 26.1179C56.6886 26.5285 55.3886 26.7337 54.0286 26.7337C52.6686 26.7337 51.3686 26.5285 50.1286 26.1179C48.8886 25.7073 47.7886 25.1096 46.8286 24.3247C45.8686 23.5398 45.1086 22.5737 44.5486 21.4266C43.9886 20.2794 43.7086 18.9571 43.7086 17.4598V17.0251C43.7086 15.5519 43.9886 14.2417 44.5486 13.0945C45.1086 11.9473 45.8686 10.9753 46.8286 10.1783C47.7886 9.38129 48.8886 8.77752 50.1286 8.36695C51.3686 7.95639 52.6686 7.7511 54.0286 7.7511C55.3886 7.7511 56.6886 7.95639 57.9286 8.36695C59.1686 8.77752 60.2686 9.38129 61.2286 10.1783C62.1886 10.9753 62.9486 11.9473 63.5086 13.0945C64.0686 14.2417 64.3486 15.5519 64.3486 17.0251V17.4598C64.3486 18.9571 64.0686 20.2794 63.5086 21.4266C62.9486 22.5737 62.1886 23.5398 61.2286 24.3247C60.2686 25.1096 59.1686 25.7073 57.9286 26.1179ZM54.0285 22.3864C53.3085 22.3864 52.6285 22.2777 51.9885 22.0604C51.3485 21.843 50.7885 21.5291 50.3085 21.1185C49.8285 20.7079 49.4485 20.2068 49.1685 19.6151C48.8885 19.0234 48.7485 18.3532 48.7485 17.6045V16.88C48.7485 16.1313 48.8885 15.4611 49.1685 14.8694C49.4485 14.2777 49.8285 13.7766 50.3085 13.366C50.7885 12.9555 51.3485 12.6415 51.9885 12.4242C52.6285 12.2068 53.3085 12.0981 54.0285 12.0981C54.7485 12.0981 55.4285 12.2068 56.0685 12.4242C56.7085 12.6415 57.2685 12.9555 57.7485 13.366C58.2285 13.7766 58.6085 14.2777 58.8885 14.8694C59.1685 15.4611 59.3085 16.1313 59.3085 16.88V17.6045C59.3085 18.3532 59.1685 19.0234 58.8885 19.6151C58.6085 20.2068 58.2285 20.7079 57.7485 21.1185C57.2685 21.5291 56.7085 21.843 56.0685 22.0604C55.4285 22.2777 54.7485 22.3864 54.0285 22.3864ZM80.6228 26.1179C79.3828 26.5285 78.0828 26.7337 76.7228 26.7337C75.3628 26.7337 74.0628 26.5285 72.8228 26.1179C71.5828 25.7073 70.4828 25.1096 69.5228 24.3247C68.5628 23.5398 67.8028 22.5737 67.2428 21.4266C66.6828 20.2794 66.4028 18.9571 66.4028 17.4598V17.0251C66.4028 15.5519 66.6828 14.2417 67.2428 13.0945C67.8028 11.9473 68.5628 10.9753 69.5228 10.1783C70.4828 9.38129 71.5828 8.77752 72.8228 8.36695C74.0628 7.95639 75.3628 7.7511 76.7228 7.7511C78.0828 7.7511 79.3828 7.95639 80.6228 8.36695C81.8628 8.77752 82.9628 9.38129 83.9228 10.1783C84.8828 10.9753 85.6428 11.9473 86.2028 13.0945C86.7628 14.2417 87.0428 15.5519 87.0428 17.0251V17.4598C87.0428 18.9571 86.7628 20.2794 86.2028 21.4266C85.6428 22.5737 84.8828 23.5398 83.9228 24.3247C82.9628 25.1096 81.8628 25.7073 80.6228 26.1179ZM76.7229 22.3864C76.0029 22.3864 75.3229 22.2777 74.6829 22.0604C74.0429 21.843 73.4829 21.5291 73.0029 21.1185C72.5229 20.7079 72.1429 20.2068 71.8629 19.6151C71.5829 19.0234 71.4429 18.3532 71.4429 17.6045V16.88C71.4429 16.1313 71.5829 15.4611 71.8629 14.8694C72.1429 14.2777 72.5229 13.7766 73.0029 13.366C73.4829 12.9555 74.0429 12.6415 74.6829 12.4242C75.3229 12.2068 76.0029 12.0981 76.7229 12.0981C77.4429 12.0981 78.1229 12.2068 78.7629 12.4242C79.4029 12.6415 79.9629 12.9555 80.4429 13.366C80.9229 13.7766 81.3029 14.2777 81.5829 14.8694C81.8629 15.4611 82.0029 16.1313 82.0029 16.88V17.6045C82.0029 18.3532 81.8629 19.0234 81.5829 19.6151C81.3029 20.2068 80.9229 20.7079 80.4429 21.1185C79.9629 21.5291 79.4029 21.843 78.7629 22.0604C78.1229 22.2777 77.4429 22.3864 76.7229 22.3864Z" fill="#495567"/>
</svg>
